<?xml version="1.0" encoding="UTF-8"?><svg xmlns="http://www.w3.org/2000/svg" xmlns:xlink="http://www.w3.org/1999/xlink" contentScriptType="text/ecmascript" width="375" zoomAndPan="magnify" contentStyleType="text/css" viewBox="0 0 375 374.999991" height="374.999991" preserveAspectRatio="xMidYMid meet" version="1.0"><defs><clipPath id="clip-0"><path d="M 58.144531 73 L 324.394531 73 L 324.394531 375 L 58.144531 375 Z M 58.144531 73 " clip-rule="nonzero"/></clipPath></defs><g clip-path="url(#clip-0)"><path fill="rgb(89.408875%, 30.198669%, 14.898682%)" d="M 324.324219 73.695312 L 300.09375 344.828125 L 191.15625 374.984375 L 82.519531 344.867188 L 58.3125 73.695312 L 324.320312 73.691406 L 324.332031 73.691406 Z M 324.324219 73.695312 " fill-opacity="1" fill-rule="nonzero"/></g><path fill="rgb(94.509888%, 39.608765%, 16.079712%)" d="M 191.320312 351.933594 L 279.351562 327.566406 L 300.0625 95.871094 L 191.320312 95.867188 Z M 191.320312 351.933594 " fill-opacity="1" fill-rule="nonzero"/><path fill="rgb(100%, 100%, 100%)" d="M 144.210938 162.382812 L 191.320312 162.382812 L 191.320312 129.121094 L 107.816406 129.121094 L 108.613281 138.046875 L 116.796875 229.695312 L 191.320312 229.695312 L 191.320312 196.445312 L 147.253906 196.445312 Z M 144.210938 162.382812 " fill-opacity="1" fill-rule="nonzero"/><path fill="rgb(100%, 100%, 100%)" d="M 151.714844 246.328125 L 118.285156 246.328125 L 122.949219 298.550781 L 191.164062 317.464844 L 191.320312 317.421875 L 191.320312 282.816406 L 191.175781 282.859375 L 154.085938 272.851562 Z M 151.714844 246.328125 " fill-opacity="1" fill-rule="nonzero"/><path fill="rgb(100%, 100%, 100%)" d="M 83.066406 0 L 99.988281 0 L 99.988281 16.699219 L 115.46875 16.699219 L 115.46875 0 L 132.394531 0 L 132.394531 50.566406 L 115.46875 50.566406 L 115.46875 33.632812 L 99.988281 33.632812 L 99.988281 50.566406 L 83.066406 50.566406 Z M 83.066406 0 " fill-opacity="1" fill-rule="nonzero"/><path fill="rgb(100%, 100%, 100%)" d="M 154.648438 16.769531 L 139.75 16.769531 L 139.75 0 L 186.484375 0 L 186.484375 16.769531 L 171.574219 16.769531 L 171.574219 50.566406 L 154.652344 50.566406 L 154.652344 16.769531 Z M 154.648438 16.769531 " fill-opacity="1" fill-rule="nonzero"/><path fill="rgb(100%, 100%, 100%)" d="M 193.898438 0 L 211.542969 0 L 222.394531 17.769531 L 233.242188 0 L 250.894531 0 L 250.894531 50.566406 L 234.042969 50.566406 L 234.042969 25.503906 L 222.394531 43.484375 L 222.105469 43.484375 L 210.457031 25.503906 L 210.457031 50.566406 L 193.898438 50.566406 Z M 193.898438 0 " fill-opacity="1" fill-rule="nonzero"/><path fill="rgb(100%, 100%, 100%)" d="M 259.320312 0 L 276.246094 0 L 276.246094 33.851562 L 300.050781 33.851562 L 300.050781 50.566406 L 259.320312 50.566406 Z M 259.320312 0 " fill-opacity="1" fill-rule="nonzero"/><path fill="rgb(100%, 100%, 100%)" d="M 191.207031 229.695312 L 232.21875 229.695312 L 228.351562 272.832031 L 191.207031 282.847656 L 191.207031 317.441406 L 259.476562 298.550781 L 259.976562 292.929688 L 267.808594 205.371094 L 268.621094 196.445312 L 191.207031 196.445312 Z M 191.207031 229.695312 " fill-opacity="1" fill-rule="nonzero"/><path fill="rgb(100%, 100%, 100%)" d="M 191.207031 162.296875 L 191.207031 162.382812 L 271.644531 162.382812 L 272.3125 154.90625 L 273.835938 138.046875 L 274.628906 129.121094 L 191.207031 129.121094 Z M 191.207031 162.296875 " fill-opacity="1" fill-rule="nonzero"/></svg>